<mxfile host="Electron" modified="2024-03-13T04:47:16.499Z" agent="Mozilla/5.0 (Windows NT 10.0; Win64; x64) AppleWebKit/537.36 (KHTML, like Gecko) draw.io/23.1.5 Chrome/120.0.6099.109 Electron/28.1.0 Safari/537.36" etag="-pwyzSylBOLE3zZ5JJ8J" version="23.1.5" type="device" pages="2">
  <diagram name="Page-1" id="eOgmMAh0pKLIUjnbuei_">
    <mxGraphModel dx="1036" dy="606" grid="1" gridSize="10" guides="1" tooltips="1" connect="1" arrows="1" fold="1" page="1" pageScale="1" pageWidth="15000" pageHeight="15000" math="0" shadow="0">
      <root>
        <mxCell id="0" />
        <mxCell id="1" parent="0" />
        <mxCell id="4jXQ8h8RhREtusohWk7J-1" value="" style="ellipse;html=1;shape=startState;fillColor=#000000;strokeColor=#ff0000;" parent="1" vertex="1">
          <mxGeometry x="492.5" y="50" width="30" height="30" as="geometry" />
        </mxCell>
        <mxCell id="4jXQ8h8RhREtusohWk7J-2" value="" style="edgeStyle=orthogonalEdgeStyle;html=1;verticalAlign=bottom;endArrow=open;endSize=8;strokeColor=#ff0000;rounded=0;entryX=0.5;entryY=0;entryDx=0;entryDy=0;" parent="1" source="4jXQ8h8RhREtusohWk7J-1" target="4jXQ8h8RhREtusohWk7J-36" edge="1">
          <mxGeometry relative="1" as="geometry">
            <mxPoint x="505" y="110" as="targetPoint" />
          </mxGeometry>
        </mxCell>
        <mxCell id="4jXQ8h8RhREtusohWk7J-3" value="Admin login Id and Password" style="rounded=1;whiteSpace=wrap;html=1;strokeWidth=2;" parent="1" vertex="1">
          <mxGeometry x="457.5" y="220" width="95" height="40" as="geometry" />
        </mxCell>
        <mxCell id="4jXQ8h8RhREtusohWk7J-6" value="" style="endArrow=classic;html=1;rounded=0;exitX=0.5;exitY=1;exitDx=0;exitDy=0;entryX=0.5;entryY=0;entryDx=0;entryDy=0;entryPerimeter=0;" parent="1" source="4jXQ8h8RhREtusohWk7J-3" edge="1">
          <mxGeometry width="50" height="50" relative="1" as="geometry">
            <mxPoint x="500" y="340" as="sourcePoint" />
            <mxPoint x="505" y="310" as="targetPoint" />
          </mxGeometry>
        </mxCell>
        <mxCell id="4jXQ8h8RhREtusohWk7J-10" value="Verify User" style="rounded=1;whiteSpace=wrap;html=1;strokeWidth=2;" parent="1" vertex="1">
          <mxGeometry x="460" y="450" width="95" height="40" as="geometry" />
        </mxCell>
        <mxCell id="4jXQ8h8RhREtusohWk7J-11" value="" style="html=1;points=[];perimeter=orthogonalPerimeter;fillColor=strokeColor;direction=south;" parent="1" vertex="1">
          <mxGeometry x="418.75" y="310" width="177.5" height="5" as="geometry" />
        </mxCell>
        <mxCell id="4jXQ8h8RhREtusohWk7J-12" value="Check login Id" style="rounded=1;whiteSpace=wrap;html=1;strokeWidth=2;" parent="1" vertex="1">
          <mxGeometry x="410" y="340" width="95" height="40" as="geometry" />
        </mxCell>
        <mxCell id="4jXQ8h8RhREtusohWk7J-13" value="Check password" style="rounded=1;whiteSpace=wrap;html=1;strokeWidth=2;" parent="1" vertex="1">
          <mxGeometry x="520" y="340" width="95" height="40" as="geometry" />
        </mxCell>
        <mxCell id="4jXQ8h8RhREtusohWk7J-14" value="" style="endArrow=classic;html=1;rounded=0;exitX=0.9;exitY=0.807;exitDx=0;exitDy=0;exitPerimeter=0;entryX=0.446;entryY=0.063;entryDx=0;entryDy=0;entryPerimeter=0;" parent="1" source="4jXQ8h8RhREtusohWk7J-11" target="4jXQ8h8RhREtusohWk7J-12" edge="1">
          <mxGeometry width="50" height="50" relative="1" as="geometry">
            <mxPoint x="480" y="360" as="sourcePoint" />
            <mxPoint x="530" y="310" as="targetPoint" />
          </mxGeometry>
        </mxCell>
        <mxCell id="4jXQ8h8RhREtusohWk7J-16" value="" style="endArrow=classic;html=1;rounded=0;exitX=0.767;exitY=0.214;exitDx=0;exitDy=0;exitPerimeter=0;entryX=0.425;entryY=-0.004;entryDx=0;entryDy=0;entryPerimeter=0;" parent="1" source="4jXQ8h8RhREtusohWk7J-11" target="4jXQ8h8RhREtusohWk7J-13" edge="1">
          <mxGeometry width="50" height="50" relative="1" as="geometry">
            <mxPoint x="480" y="360" as="sourcePoint" />
            <mxPoint x="530" y="310" as="targetPoint" />
          </mxGeometry>
        </mxCell>
        <mxCell id="4jXQ8h8RhREtusohWk7J-17" value="" style="rhombus;" parent="1" vertex="1">
          <mxGeometry x="492.5" y="400" width="30" height="30" as="geometry" />
        </mxCell>
        <mxCell id="4jXQ8h8RhREtusohWk7J-18" value="" style="endArrow=classic;html=1;rounded=0;exitX=0.5;exitY=1;exitDx=0;exitDy=0;entryX=0.5;entryY=0;entryDx=0;entryDy=0;" parent="1" source="4jXQ8h8RhREtusohWk7J-17" target="4jXQ8h8RhREtusohWk7J-10" edge="1">
          <mxGeometry width="50" height="50" relative="1" as="geometry">
            <mxPoint x="480" y="360" as="sourcePoint" />
            <mxPoint x="530" y="310" as="targetPoint" />
          </mxGeometry>
        </mxCell>
        <mxCell id="4jXQ8h8RhREtusohWk7J-19" value="" style="endArrow=classic;html=1;rounded=0;exitX=0.5;exitY=1;exitDx=0;exitDy=0;entryX=0;entryY=0.5;entryDx=0;entryDy=0;" parent="1" source="4jXQ8h8RhREtusohWk7J-12" target="4jXQ8h8RhREtusohWk7J-17" edge="1">
          <mxGeometry width="50" height="50" relative="1" as="geometry">
            <mxPoint x="480" y="360" as="sourcePoint" />
            <mxPoint x="530" y="310" as="targetPoint" />
          </mxGeometry>
        </mxCell>
        <mxCell id="4jXQ8h8RhREtusohWk7J-20" value="" style="endArrow=classic;html=1;rounded=0;exitX=0.5;exitY=1;exitDx=0;exitDy=0;entryX=1;entryY=0.5;entryDx=0;entryDy=0;" parent="1" source="4jXQ8h8RhREtusohWk7J-13" target="4jXQ8h8RhREtusohWk7J-17" edge="1">
          <mxGeometry width="50" height="50" relative="1" as="geometry">
            <mxPoint x="480" y="360" as="sourcePoint" />
            <mxPoint x="530" y="310" as="targetPoint" />
          </mxGeometry>
        </mxCell>
        <mxCell id="4jXQ8h8RhREtusohWk7J-21" value="Is User Authenticate ??" style="rhombus;whiteSpace=wrap;html=1;" parent="1" vertex="1">
          <mxGeometry x="467.5" y="530" width="80" height="80" as="geometry" />
        </mxCell>
        <mxCell id="4jXQ8h8RhREtusohWk7J-22" value="" style="endArrow=classic;html=1;rounded=0;exitX=0.5;exitY=1;exitDx=0;exitDy=0;entryX=0.5;entryY=0;entryDx=0;entryDy=0;" parent="1" source="4jXQ8h8RhREtusohWk7J-10" target="4jXQ8h8RhREtusohWk7J-21" edge="1">
          <mxGeometry width="50" height="50" relative="1" as="geometry">
            <mxPoint x="480" y="520" as="sourcePoint" />
            <mxPoint x="530" y="470" as="targetPoint" />
          </mxGeometry>
        </mxCell>
        <mxCell id="4jXQ8h8RhREtusohWk7J-24" value="Login Succesfully" style="rounded=1;whiteSpace=wrap;html=1;strokeWidth=2;" parent="1" vertex="1">
          <mxGeometry x="581.25" y="600" width="95" height="40" as="geometry" />
        </mxCell>
        <mxCell id="4jXQ8h8RhREtusohWk7J-25" value="" style="endArrow=classic;html=1;rounded=0;entryX=0.5;entryY=0;entryDx=0;entryDy=0;exitX=1;exitY=0.5;exitDx=0;exitDy=0;" parent="1" source="4jXQ8h8RhREtusohWk7J-21" target="4jXQ8h8RhREtusohWk7J-24" edge="1">
          <mxGeometry width="50" height="50" relative="1" as="geometry">
            <mxPoint x="480" y="520" as="sourcePoint" />
            <mxPoint x="530" y="470" as="targetPoint" />
            <Array as="points">
              <mxPoint x="629" y="570" />
            </Array>
          </mxGeometry>
        </mxCell>
        <mxCell id="4jXQ8h8RhREtusohWk7J-26" value="Invalid login Id/Password" style="rounded=1;whiteSpace=wrap;html=1;strokeWidth=2;" parent="1" vertex="1">
          <mxGeometry x="315" y="700" width="95" height="40" as="geometry" />
        </mxCell>
        <mxCell id="4jXQ8h8RhREtusohWk7J-28" value="Check Login Detail" style="rounded=1;whiteSpace=wrap;html=1;strokeWidth=2;" parent="1" vertex="1">
          <mxGeometry x="362.5" y="600" width="95" height="40" as="geometry" />
        </mxCell>
        <mxCell id="4jXQ8h8RhREtusohWk7J-29" value="" style="endArrow=classic;html=1;rounded=0;exitX=0;exitY=0.5;exitDx=0;exitDy=0;entryX=0.5;entryY=0;entryDx=0;entryDy=0;" parent="1" source="4jXQ8h8RhREtusohWk7J-21" target="4jXQ8h8RhREtusohWk7J-28" edge="1">
          <mxGeometry width="50" height="50" relative="1" as="geometry">
            <mxPoint x="480" y="520" as="sourcePoint" />
            <mxPoint x="530" y="470" as="targetPoint" />
            <Array as="points">
              <mxPoint x="410" y="570" />
            </Array>
          </mxGeometry>
        </mxCell>
        <mxCell id="4jXQ8h8RhREtusohWk7J-30" value="" style="html=1;points=[];perimeter=orthogonalPerimeter;fillColor=strokeColor;direction=south;" parent="1" vertex="1">
          <mxGeometry x="327.5" y="660" width="177.5" height="5" as="geometry" />
        </mxCell>
        <mxCell id="4jXQ8h8RhREtusohWk7J-31" value="User Not Found" style="rounded=1;whiteSpace=wrap;html=1;strokeWidth=2;" parent="1" vertex="1">
          <mxGeometry x="418.75" y="700" width="95" height="40" as="geometry" />
        </mxCell>
        <mxCell id="4jXQ8h8RhREtusohWk7J-32" value="" style="endArrow=classic;html=1;rounded=0;exitX=0.5;exitY=0.796;exitDx=0;exitDy=0;exitPerimeter=0;entryX=0.5;entryY=0;entryDx=0;entryDy=0;" parent="1" source="4jXQ8h8RhREtusohWk7J-30" target="4jXQ8h8RhREtusohWk7J-26" edge="1">
          <mxGeometry width="50" height="50" relative="1" as="geometry">
            <mxPoint x="480" y="680" as="sourcePoint" />
            <mxPoint x="530" y="630" as="targetPoint" />
          </mxGeometry>
        </mxCell>
        <mxCell id="4jXQ8h8RhREtusohWk7J-33" value="" style="endArrow=classic;html=1;rounded=0;exitX=0.8;exitY=0.216;exitDx=0;exitDy=0;exitPerimeter=0;entryX=0.5;entryY=0;entryDx=0;entryDy=0;" parent="1" source="4jXQ8h8RhREtusohWk7J-30" target="4jXQ8h8RhREtusohWk7J-31" edge="1">
          <mxGeometry width="50" height="50" relative="1" as="geometry">
            <mxPoint x="480" y="680" as="sourcePoint" />
            <mxPoint x="530" y="630" as="targetPoint" />
          </mxGeometry>
        </mxCell>
        <mxCell id="4jXQ8h8RhREtusohWk7J-34" value="" style="endArrow=classic;html=1;rounded=0;exitX=0;exitY=0.5;exitDx=0;exitDy=0;entryX=0.026;entryY=0.5;entryDx=0;entryDy=0;entryPerimeter=0;" parent="1" source="4jXQ8h8RhREtusohWk7J-26" target="4jXQ8h8RhREtusohWk7J-3" edge="1">
          <mxGeometry width="50" height="50" relative="1" as="geometry">
            <mxPoint x="410" y="600" as="sourcePoint" />
            <mxPoint x="450" y="240" as="targetPoint" />
            <Array as="points">
              <mxPoint x="230" y="720" />
              <mxPoint x="230" y="240" />
            </Array>
          </mxGeometry>
        </mxCell>
        <mxCell id="4jXQ8h8RhREtusohWk7J-36" value="Display Email webpage" style="rounded=1;whiteSpace=wrap;html=1;strokeWidth=2;" parent="1" vertex="1">
          <mxGeometry x="460" y="140" width="95" height="40" as="geometry" />
        </mxCell>
        <mxCell id="4jXQ8h8RhREtusohWk7J-37" value="" style="endArrow=classic;html=1;rounded=0;exitX=0.5;exitY=1;exitDx=0;exitDy=0;" parent="1" source="4jXQ8h8RhREtusohWk7J-36" edge="1">
          <mxGeometry width="50" height="50" relative="1" as="geometry">
            <mxPoint x="410" y="280" as="sourcePoint" />
            <mxPoint x="508" y="220" as="targetPoint" />
          </mxGeometry>
        </mxCell>
        <mxCell id="4jXQ8h8RhREtusohWk7J-39" value="" style="endArrow=classic;html=1;rounded=0;exitX=0.5;exitY=1;exitDx=0;exitDy=0;entryX=-0.033;entryY=0.537;entryDx=0;entryDy=0;entryPerimeter=0;" parent="1" source="4jXQ8h8RhREtusohWk7J-28" target="4jXQ8h8RhREtusohWk7J-30" edge="1">
          <mxGeometry width="50" height="50" relative="1" as="geometry">
            <mxPoint x="410" y="630" as="sourcePoint" />
            <mxPoint x="460" y="560" as="targetPoint" />
          </mxGeometry>
        </mxCell>
        <mxCell id="4jXQ8h8RhREtusohWk7J-40" value="" style="ellipse;html=1;shape=endState;fillColor=#000000;strokeColor=#ff0000;" parent="1" vertex="1">
          <mxGeometry x="451.25" y="800" width="30" height="30" as="geometry" />
        </mxCell>
        <mxCell id="4jXQ8h8RhREtusohWk7J-41" value="" style="edgeStyle=orthogonalEdgeStyle;html=1;verticalAlign=bottom;endArrow=open;endSize=8;strokeColor=#ff0000;rounded=0;entryX=0.5;entryY=0;entryDx=0;entryDy=0;" parent="1" edge="1">
          <mxGeometry relative="1" as="geometry">
            <mxPoint x="465.83" y="800" as="targetPoint" />
            <mxPoint x="465.83" y="740" as="sourcePoint" />
          </mxGeometry>
        </mxCell>
        <mxCell id="4jXQ8h8RhREtusohWk7J-43" value="" style="html=1;points=[];perimeter=orthogonalPerimeter;fillColor=strokeColor;direction=south;" parent="1" vertex="1">
          <mxGeometry x="547.5" y="660" width="302.5" height="5" as="geometry" />
        </mxCell>
        <mxCell id="4jXQ8h8RhREtusohWk7J-44" value="" style="endArrow=classic;html=1;rounded=0;exitX=0.5;exitY=1;exitDx=0;exitDy=0;entryX=0.1;entryY=0.726;entryDx=0;entryDy=0;entryPerimeter=0;" parent="1" source="4jXQ8h8RhREtusohWk7J-24" target="4jXQ8h8RhREtusohWk7J-43" edge="1">
          <mxGeometry width="50" height="50" relative="1" as="geometry">
            <mxPoint x="410" y="640" as="sourcePoint" />
            <mxPoint x="460" y="590" as="targetPoint" />
          </mxGeometry>
        </mxCell>
        <mxCell id="4jXQ8h8RhREtusohWk7J-45" value="Account Details" style="rounded=1;whiteSpace=wrap;html=1;strokeWidth=2;" parent="1" vertex="1">
          <mxGeometry x="540" y="700" width="95" height="40" as="geometry" />
        </mxCell>
        <mxCell id="4jXQ8h8RhREtusohWk7J-46" value="&amp;nbsp;Inbox" style="rounded=1;whiteSpace=wrap;html=1;strokeWidth=2;" parent="1" vertex="1">
          <mxGeometry x="650" y="700" width="95" height="40" as="geometry" />
        </mxCell>
        <mxCell id="4jXQ8h8RhREtusohWk7J-47" value="Manage Mail" style="rounded=1;whiteSpace=wrap;html=1;strokeWidth=2;" parent="1" vertex="1">
          <mxGeometry x="760" y="700" width="95" height="40" as="geometry" />
        </mxCell>
        <mxCell id="4jXQ8h8RhREtusohWk7J-51" value="" style="endArrow=classic;html=1;rounded=0;exitX=0.848;exitY=1.028;exitDx=0;exitDy=0;entryX=0.5;entryY=0;entryDx=0;entryDy=0;exitPerimeter=0;" parent="1" source="4jXQ8h8RhREtusohWk7J-46" edge="1">
          <mxGeometry width="50" height="50" relative="1" as="geometry">
            <mxPoint x="730" y="745" as="sourcePoint" />
            <mxPoint x="731.25" y="795" as="targetPoint" />
          </mxGeometry>
        </mxCell>
        <mxCell id="4jXQ8h8RhREtusohWk7J-64" value="" style="html=1;points=[];perimeter=orthogonalPerimeter;fillColor=strokeColor;direction=south;" parent="1" vertex="1">
          <mxGeometry x="790" y="785" width="610" height="5" as="geometry" />
        </mxCell>
        <mxCell id="4jXQ8h8RhREtusohWk7J-65" value="" style="endArrow=classic;html=1;rounded=0;entryX=0.174;entryY=0.926;entryDx=0;entryDy=0;entryPerimeter=0;" parent="1" target="4jXQ8h8RhREtusohWk7J-64" edge="1">
          <mxGeometry width="50" height="50" relative="1" as="geometry">
            <mxPoint x="835" y="740" as="sourcePoint" />
            <mxPoint x="700" y="910" as="targetPoint" />
          </mxGeometry>
        </mxCell>
        <mxCell id="4jXQ8h8RhREtusohWk7J-66" value="Draft Mail" style="rounded=1;whiteSpace=wrap;html=1;strokeWidth=2;" parent="1" vertex="1">
          <mxGeometry x="1240" y="830" width="95" height="40" as="geometry" />
        </mxCell>
        <mxCell id="4jXQ8h8RhREtusohWk7J-67" value="Spam Mail" style="rounded=1;whiteSpace=wrap;html=1;strokeWidth=2;" parent="1" vertex="1">
          <mxGeometry x="963.75" y="830" width="95" height="40" as="geometry" />
        </mxCell>
        <mxCell id="4jXQ8h8RhREtusohWk7J-68" value="Trash Mail" style="rounded=1;whiteSpace=wrap;html=1;strokeWidth=2;" parent="1" vertex="1">
          <mxGeometry x="1100" y="830" width="95" height="40" as="geometry" />
        </mxCell>
        <mxCell id="4jXQ8h8RhREtusohWk7J-69" value="Compose Mail" style="rounded=1;whiteSpace=wrap;html=1;strokeWidth=2;" parent="1" vertex="1">
          <mxGeometry x="815" y="830" width="95" height="40" as="geometry" />
        </mxCell>
        <mxCell id="4jXQ8h8RhREtusohWk7J-70" value="Want to add Attachement ??" style="rhombus;whiteSpace=wrap;html=1;" parent="1" vertex="1">
          <mxGeometry x="810" y="920" width="105" height="110" as="geometry" />
        </mxCell>
        <mxCell id="4jXQ8h8RhREtusohWk7J-71" value="Attach File" style="rounded=1;whiteSpace=wrap;html=1;strokeWidth=2;" parent="1" vertex="1">
          <mxGeometry x="737.5" y="1045" width="95" height="40" as="geometry" />
        </mxCell>
        <mxCell id="4jXQ8h8RhREtusohWk7J-72" value="" style="rhombus;" parent="1" vertex="1">
          <mxGeometry x="923.75" y="1050" width="30" height="30" as="geometry" />
        </mxCell>
        <mxCell id="4jXQ8h8RhREtusohWk7J-73" value="" style="endArrow=classic;html=1;rounded=0;exitX=0;exitY=0.5;exitDx=0;exitDy=0;entryX=0.458;entryY=-0.061;entryDx=0;entryDy=0;entryPerimeter=0;" parent="1" edge="1">
          <mxGeometry width="50" height="50" relative="1" as="geometry">
            <mxPoint x="810" y="975" as="sourcePoint" />
            <mxPoint x="781.01" y="1042.56" as="targetPoint" />
            <Array as="points">
              <mxPoint x="780" y="975" />
            </Array>
          </mxGeometry>
        </mxCell>
        <mxCell id="4jXQ8h8RhREtusohWk7J-74" value="" style="endArrow=classic;html=1;rounded=0;exitX=1;exitY=0.5;exitDx=0;exitDy=0;entryX=0.5;entryY=0;entryDx=0;entryDy=0;" parent="1" target="4jXQ8h8RhREtusohWk7J-72" edge="1">
          <mxGeometry width="50" height="50" relative="1" as="geometry">
            <mxPoint x="915" y="975" as="sourcePoint" />
            <mxPoint x="803.75" y="930" as="targetPoint" />
            <Array as="points">
              <mxPoint x="940" y="975" />
            </Array>
          </mxGeometry>
        </mxCell>
        <mxCell id="4jXQ8h8RhREtusohWk7J-75" value="" style="endArrow=classic;html=1;rounded=0;entryX=0;entryY=0.5;entryDx=0;entryDy=0;exitX=1;exitY=0.5;exitDx=0;exitDy=0;" parent="1" target="4jXQ8h8RhREtusohWk7J-72" edge="1">
          <mxGeometry width="50" height="50" relative="1" as="geometry">
            <mxPoint x="832.5" y="1065" as="sourcePoint" />
            <mxPoint x="853.75" y="960" as="targetPoint" />
          </mxGeometry>
        </mxCell>
        <mxCell id="4jXQ8h8RhREtusohWk7J-76" value="" style="endArrow=classic;html=1;rounded=0;exitX=0.5;exitY=1;exitDx=0;exitDy=0;entryX=0.5;entryY=0;entryDx=0;entryDy=0;" parent="1" source="4jXQ8h8RhREtusohWk7J-72" edge="1">
          <mxGeometry width="50" height="50" relative="1" as="geometry">
            <mxPoint x="803.75" y="1010" as="sourcePoint" />
            <mxPoint x="938.75" y="1110" as="targetPoint" />
          </mxGeometry>
        </mxCell>
        <mxCell id="4jXQ8h8RhREtusohWk7J-77" value="Send Mail" style="rounded=1;whiteSpace=wrap;html=1;strokeWidth=2;" parent="1" vertex="1">
          <mxGeometry x="891.25" y="1110" width="95" height="40" as="geometry" />
        </mxCell>
        <mxCell id="4jXQ8h8RhREtusohWk7J-78" value="Read Mail" style="rounded=1;whiteSpace=wrap;html=1;strokeWidth=2;" parent="1" vertex="1">
          <mxGeometry x="690" y="795" width="95" height="40" as="geometry" />
        </mxCell>
        <mxCell id="4jXQ8h8RhREtusohWk7J-82" value="" style="endArrow=classic;html=1;rounded=0;entryX=0.5;entryY=0;entryDx=0;entryDy=0;exitX=0.24;exitY=0.186;exitDx=0;exitDy=0;exitPerimeter=0;" parent="1" source="4jXQ8h8RhREtusohWk7J-64" target="4jXQ8h8RhREtusohWk7J-66" edge="1">
          <mxGeometry width="50" height="50" relative="1" as="geometry">
            <mxPoint x="1157.24" y="790" as="sourcePoint" />
            <mxPoint x="1157.24" y="833" as="targetPoint" />
          </mxGeometry>
        </mxCell>
        <mxCell id="4jXQ8h8RhREtusohWk7J-83" value="" style="endArrow=classic;html=1;rounded=0;entryX=0.5;entryY=0;entryDx=0;entryDy=0;exitX=0.749;exitY=0.412;exitDx=0;exitDy=0;exitPerimeter=0;" parent="1" source="4jXQ8h8RhREtusohWk7J-64" target="4jXQ8h8RhREtusohWk7J-68" edge="1">
          <mxGeometry width="50" height="50" relative="1" as="geometry">
            <mxPoint x="1186" y="790" as="sourcePoint" />
            <mxPoint x="1189" y="833" as="targetPoint" />
          </mxGeometry>
        </mxCell>
        <mxCell id="4jXQ8h8RhREtusohWk7J-84" value="Delete Mail" style="rounded=1;whiteSpace=wrap;html=1;strokeWidth=2;" parent="1" vertex="1">
          <mxGeometry x="1100" y="1030" width="95" height="40" as="geometry" />
        </mxCell>
        <mxCell id="4jXQ8h8RhREtusohWk7J-85" value="" style="html=1;points=[];perimeter=orthogonalPerimeter;fillColor=strokeColor;direction=south;" parent="1" vertex="1">
          <mxGeometry x="1202.5" y="895" width="170" height="5" as="geometry" />
        </mxCell>
        <mxCell id="4jXQ8h8RhREtusohWk7J-86" value="Archive Mail" style="rounded=1;whiteSpace=wrap;html=1;strokeWidth=2;" parent="1" vertex="1">
          <mxGeometry x="1270" y="930" width="95" height="40" as="geometry" />
        </mxCell>
        <mxCell id="4jXQ8h8RhREtusohWk7J-89" value="" style="rhombus;" parent="1" vertex="1">
          <mxGeometry x="1132.5" y="960" width="30" height="30" as="geometry" />
        </mxCell>
        <mxCell id="4jXQ8h8RhREtusohWk7J-90" value="" style="endArrow=classic;html=1;rounded=0;exitX=0.5;exitY=1;exitDx=0;exitDy=0;entryX=0.852;entryY=0.493;entryDx=0;entryDy=0;entryPerimeter=0;" parent="1" source="4jXQ8h8RhREtusohWk7J-66" target="4jXQ8h8RhREtusohWk7J-85" edge="1">
          <mxGeometry width="50" height="50" relative="1" as="geometry">
            <mxPoint x="1030" y="980" as="sourcePoint" />
            <mxPoint x="1080" y="930" as="targetPoint" />
          </mxGeometry>
        </mxCell>
        <mxCell id="4jXQ8h8RhREtusohWk7J-94" value="" style="endArrow=classic;html=1;rounded=0;exitX=1.12;exitY=0.779;exitDx=0;exitDy=0;exitPerimeter=0;entryX=1;entryY=0.5;entryDx=0;entryDy=0;" parent="1" source="4jXQ8h8RhREtusohWk7J-85" target="4jXQ8h8RhREtusohWk7J-89" edge="1">
          <mxGeometry width="50" height="50" relative="1" as="geometry">
            <mxPoint x="1050" y="980" as="sourcePoint" />
            <mxPoint x="1100" y="930" as="targetPoint" />
            <Array as="points">
              <mxPoint x="1240" y="975" />
            </Array>
          </mxGeometry>
        </mxCell>
        <mxCell id="4jXQ8h8RhREtusohWk7J-95" value="" style="endArrow=classic;html=1;rounded=0;exitX=0.5;exitY=1;exitDx=0;exitDy=0;entryX=0.5;entryY=0;entryDx=0;entryDy=0;" parent="1" source="4jXQ8h8RhREtusohWk7J-89" target="4jXQ8h8RhREtusohWk7J-84" edge="1">
          <mxGeometry width="50" height="50" relative="1" as="geometry">
            <mxPoint x="1050" y="980" as="sourcePoint" />
            <mxPoint x="1100" y="930" as="targetPoint" />
          </mxGeometry>
        </mxCell>
        <mxCell id="4jXQ8h8RhREtusohWk7J-97" value="" style="rhombus;" parent="1" vertex="1">
          <mxGeometry x="1132.5" y="1150" width="30" height="30" as="geometry" />
        </mxCell>
        <mxCell id="4jXQ8h8RhREtusohWk7J-99" value="" style="endArrow=classic;html=1;rounded=0;exitX=1;exitY=0.5;exitDx=0;exitDy=0;entryX=0;entryY=0;entryDx=0;entryDy=0;" parent="1" source="m-cgeizB23GsR8p7LIg1-52" target="4jXQ8h8RhREtusohWk7J-97" edge="1">
          <mxGeometry width="50" height="50" relative="1" as="geometry">
            <mxPoint x="1030" y="1050" as="sourcePoint" />
            <mxPoint x="1080" y="1000" as="targetPoint" />
            <Array as="points">
              <mxPoint x="1060" y="1065" />
            </Array>
          </mxGeometry>
        </mxCell>
        <mxCell id="4jXQ8h8RhREtusohWk7J-100" value="" style="endArrow=classic;html=1;rounded=0;exitX=0.5;exitY=1;exitDx=0;exitDy=0;entryX=0.5;entryY=0;entryDx=0;entryDy=0;" parent="1" source="4jXQ8h8RhREtusohWk7J-84" target="4jXQ8h8RhREtusohWk7J-97" edge="1">
          <mxGeometry width="50" height="50" relative="1" as="geometry">
            <mxPoint x="1030" y="1050" as="sourcePoint" />
            <mxPoint x="1080" y="1000" as="targetPoint" />
          </mxGeometry>
        </mxCell>
        <mxCell id="4jXQ8h8RhREtusohWk7J-101" value="" style="endArrow=classic;html=1;rounded=0;exitX=0.5;exitY=1;exitDx=0;exitDy=0;entryX=1;entryY=0.5;entryDx=0;entryDy=0;" parent="1" source="4jXQ8h8RhREtusohWk7J-86" target="4jXQ8h8RhREtusohWk7J-97" edge="1">
          <mxGeometry width="50" height="50" relative="1" as="geometry">
            <mxPoint x="1030" y="1050" as="sourcePoint" />
            <mxPoint x="1080" y="1000" as="targetPoint" />
            <Array as="points">
              <mxPoint x="1318" y="1165" />
            </Array>
          </mxGeometry>
        </mxCell>
        <mxCell id="4jXQ8h8RhREtusohWk7J-102" value="Log Out" style="rounded=1;whiteSpace=wrap;html=1;strokeWidth=2;" parent="1" vertex="1">
          <mxGeometry x="1100" y="1230" width="95" height="40" as="geometry" />
        </mxCell>
        <mxCell id="4jXQ8h8RhREtusohWk7J-103" value="" style="endArrow=classic;html=1;rounded=0;exitX=0.5;exitY=1;exitDx=0;exitDy=0;entryX=0.5;entryY=0;entryDx=0;entryDy=0;" parent="1" source="4jXQ8h8RhREtusohWk7J-97" target="4jXQ8h8RhREtusohWk7J-102" edge="1">
          <mxGeometry width="50" height="50" relative="1" as="geometry">
            <mxPoint x="1030" y="1140" as="sourcePoint" />
            <mxPoint x="1080" y="1090" as="targetPoint" />
          </mxGeometry>
        </mxCell>
        <mxCell id="4jXQ8h8RhREtusohWk7J-104" value="" style="endArrow=classic;html=1;rounded=0;exitX=0.404;exitY=1.002;exitDx=0;exitDy=0;entryX=0;entryY=0.5;entryDx=0;entryDy=0;exitPerimeter=0;" parent="1" source="4jXQ8h8RhREtusohWk7J-78" target="4jXQ8h8RhREtusohWk7J-97" edge="1">
          <mxGeometry width="50" height="50" relative="1" as="geometry">
            <mxPoint x="727.095" y="831.8" as="sourcePoint" />
            <mxPoint x="1100" y="1170" as="targetPoint" />
            <Array as="points">
              <mxPoint x="727" y="1165" />
            </Array>
          </mxGeometry>
        </mxCell>
        <mxCell id="4jXQ8h8RhREtusohWk7J-106" value="" style="ellipse;html=1;shape=endState;fillColor=#000000;strokeColor=#ff0000;" parent="1" vertex="1">
          <mxGeometry x="1132.5" y="1310" width="30" height="30" as="geometry" />
        </mxCell>
        <mxCell id="4jXQ8h8RhREtusohWk7J-107" value="" style="edgeStyle=orthogonalEdgeStyle;html=1;verticalAlign=bottom;endArrow=open;endSize=8;strokeColor=#ff0000;rounded=0;" parent="1" edge="1">
          <mxGeometry relative="1" as="geometry">
            <mxPoint x="1147" y="1310" as="targetPoint" />
            <mxPoint x="1146.97" y="1270" as="sourcePoint" />
          </mxGeometry>
        </mxCell>
        <mxCell id="4jXQ8h8RhREtusohWk7J-109" value="" style="endArrow=classic;html=1;rounded=0;entryX=0.5;entryY=0;entryDx=0;entryDy=0;exitX=0.692;exitY=0.87;exitDx=0;exitDy=0;exitPerimeter=0;" parent="1" source="4jXQ8h8RhREtusohWk7J-43" target="4jXQ8h8RhREtusohWk7J-45" edge="1">
          <mxGeometry width="50" height="50" relative="1" as="geometry">
            <mxPoint x="590" y="670" as="sourcePoint" />
            <mxPoint x="690" y="630" as="targetPoint" />
          </mxGeometry>
        </mxCell>
        <mxCell id="4jXQ8h8RhREtusohWk7J-110" value="" style="endArrow=classic;html=1;rounded=0;exitX=0.856;exitY=0.521;exitDx=0;exitDy=0;exitPerimeter=0;entryX=0.438;entryY=-0.021;entryDx=0;entryDy=0;entryPerimeter=0;" parent="1" source="4jXQ8h8RhREtusohWk7J-43" target="4jXQ8h8RhREtusohWk7J-46" edge="1">
          <mxGeometry width="50" height="50" relative="1" as="geometry">
            <mxPoint x="600" y="700" as="sourcePoint" />
            <mxPoint x="650" y="650" as="targetPoint" />
          </mxGeometry>
        </mxCell>
        <mxCell id="4jXQ8h8RhREtusohWk7J-111" value="" style="endArrow=classic;html=1;rounded=0;exitX=0.856;exitY=0.521;exitDx=0;exitDy=0;exitPerimeter=0;entryX=0.438;entryY=-0.021;entryDx=0;entryDy=0;entryPerimeter=0;" parent="1" edge="1">
          <mxGeometry width="50" height="50" relative="1" as="geometry">
            <mxPoint x="807.24" y="665" as="sourcePoint" />
            <mxPoint x="807.24" y="700" as="targetPoint" />
          </mxGeometry>
        </mxCell>
        <mxCell id="m-cgeizB23GsR8p7LIg1-1" value="" style="endArrow=classic;html=1;rounded=0;entryX=0.5;entryY=0;entryDx=0;entryDy=0;exitX=0.5;exitY=1;exitDx=0;exitDy=0;" edge="1" parent="1" source="4jXQ8h8RhREtusohWk7J-69" target="4jXQ8h8RhREtusohWk7J-70">
          <mxGeometry width="50" height="50" relative="1" as="geometry">
            <mxPoint x="820" y="890" as="sourcePoint" />
            <mxPoint x="870" y="840" as="targetPoint" />
          </mxGeometry>
        </mxCell>
        <mxCell id="m-cgeizB23GsR8p7LIg1-2" value="" style="endArrow=classic;html=1;rounded=0;entryX=0.479;entryY=-0.025;entryDx=0;entryDy=0;exitX=0.533;exitY=0.884;exitDx=0;exitDy=0;exitPerimeter=0;entryPerimeter=0;" edge="1" parent="1" source="4jXQ8h8RhREtusohWk7J-64" target="4jXQ8h8RhREtusohWk7J-69">
          <mxGeometry width="50" height="50" relative="1" as="geometry">
            <mxPoint x="831.38" y="790" as="sourcePoint" />
            <mxPoint x="833.62" y="830.6" as="targetPoint" />
          </mxGeometry>
        </mxCell>
        <mxCell id="m-cgeizB23GsR8p7LIg1-3" value="" style="endArrow=classic;html=1;rounded=0;entryX=0.5;entryY=0;entryDx=0;entryDy=0;exitX=1;exitY=0.639;exitDx=0;exitDy=0;exitPerimeter=0;" edge="1" parent="1" source="4jXQ8h8RhREtusohWk7J-64" target="4jXQ8h8RhREtusohWk7J-67">
          <mxGeometry width="50" height="50" relative="1" as="geometry">
            <mxPoint x="800" y="890" as="sourcePoint" />
            <mxPoint x="850" y="840" as="targetPoint" />
          </mxGeometry>
        </mxCell>
        <mxCell id="m-cgeizB23GsR8p7LIg1-4" value="NO" style="text;html=1;align=center;verticalAlign=middle;whiteSpace=wrap;rounded=0;" vertex="1" parent="1">
          <mxGeometry x="407.5" y="540" width="60" height="30" as="geometry" />
        </mxCell>
        <mxCell id="m-cgeizB23GsR8p7LIg1-5" value="YES" style="text;html=1;align=center;verticalAlign=middle;whiteSpace=wrap;rounded=0;" vertex="1" parent="1">
          <mxGeometry x="557.5" y="540" width="60" height="30" as="geometry" />
        </mxCell>
        <mxCell id="m-cgeizB23GsR8p7LIg1-6" value="NO" style="text;html=1;align=center;verticalAlign=middle;whiteSpace=wrap;rounded=0;" vertex="1" parent="1">
          <mxGeometry x="885.75" y="940" width="60" height="30" as="geometry" />
        </mxCell>
        <mxCell id="m-cgeizB23GsR8p7LIg1-7" value="YES" style="text;html=1;align=center;verticalAlign=middle;whiteSpace=wrap;rounded=0;" vertex="1" parent="1">
          <mxGeometry x="765" y="940" width="60" height="30" as="geometry" />
        </mxCell>
        <mxCell id="m-cgeizB23GsR8p7LIg1-8" value="&lt;font color=&quot;#ff0000&quot;&gt;START&lt;/font&gt;" style="text;html=1;align=center;verticalAlign=middle;whiteSpace=wrap;rounded=0;" vertex="1" parent="1">
          <mxGeometry x="477.5" y="20" width="60" height="30" as="geometry" />
        </mxCell>
        <mxCell id="m-cgeizB23GsR8p7LIg1-9" value="&lt;font color=&quot;#ff0000&quot;&gt;END&lt;/font&gt;" style="text;html=1;align=center;verticalAlign=middle;whiteSpace=wrap;rounded=0;" vertex="1" parent="1">
          <mxGeometry x="436.25" y="835" width="60" height="30" as="geometry" />
        </mxCell>
        <mxCell id="m-cgeizB23GsR8p7LIg1-10" value="&lt;font color=&quot;#ff0000&quot;&gt;END&lt;br&gt;&lt;/font&gt;" style="text;html=1;align=center;verticalAlign=middle;whiteSpace=wrap;rounded=0;" vertex="1" parent="1">
          <mxGeometry x="1117.5" y="1350" width="60" height="30" as="geometry" />
        </mxCell>
        <mxCell id="m-cgeizB23GsR8p7LIg1-12" value="" style="html=1;points=[];perimeter=orthogonalPerimeter;fillColor=strokeColor;direction=west;" vertex="1" parent="1">
          <mxGeometry x="520" y="760" width="5" height="370" as="geometry" />
        </mxCell>
        <mxCell id="m-cgeizB23GsR8p7LIg1-14" value="Home" style="rounded=1;whiteSpace=wrap;html=1;strokeWidth=2;" vertex="1" parent="1">
          <mxGeometry x="547.5" y="790" width="95" height="40" as="geometry" />
        </mxCell>
        <mxCell id="m-cgeizB23GsR8p7LIg1-15" value="" style="endArrow=classic;html=1;rounded=0;exitX=0;exitY=0.5;exitDx=0;exitDy=0;entryX=0.87;entryY=1.008;entryDx=0;entryDy=0;entryPerimeter=0;" edge="1" parent="1" source="4jXQ8h8RhREtusohWk7J-45" target="m-cgeizB23GsR8p7LIg1-12">
          <mxGeometry width="50" height="50" relative="1" as="geometry">
            <mxPoint x="600" y="760" as="sourcePoint" />
            <mxPoint x="650" y="710" as="targetPoint" />
            <Array as="points">
              <mxPoint x="520" y="720" />
            </Array>
          </mxGeometry>
        </mxCell>
        <mxCell id="m-cgeizB23GsR8p7LIg1-16" value="Personal Information" style="rounded=1;whiteSpace=wrap;html=1;strokeWidth=2;" vertex="1" parent="1">
          <mxGeometry x="547.5" y="855" width="95" height="40" as="geometry" />
        </mxCell>
        <mxCell id="m-cgeizB23GsR8p7LIg1-17" value="Data &amp;amp; Privacy" style="rounded=1;whiteSpace=wrap;html=1;strokeWidth=2;" vertex="1" parent="1">
          <mxGeometry x="547.5" y="930" width="95" height="40" as="geometry" />
        </mxCell>
        <mxCell id="m-cgeizB23GsR8p7LIg1-18" value="Security" style="rounded=1;whiteSpace=wrap;html=1;strokeWidth=2;" vertex="1" parent="1">
          <mxGeometry x="547.5" y="1000" width="95" height="40" as="geometry" />
        </mxCell>
        <mxCell id="m-cgeizB23GsR8p7LIg1-19" value="Payment &amp;amp; Subscription" style="rounded=1;whiteSpace=wrap;html=1;strokeWidth=2;" vertex="1" parent="1">
          <mxGeometry x="547.5" y="1070" width="95" height="40" as="geometry" />
        </mxCell>
        <mxCell id="m-cgeizB23GsR8p7LIg1-20" value="" style="endArrow=classic;html=1;rounded=0;entryX=0;entryY=0.5;entryDx=0;entryDy=0;" edge="1" parent="1" target="m-cgeizB23GsR8p7LIg1-14">
          <mxGeometry width="50" height="50" relative="1" as="geometry">
            <mxPoint x="523" y="810" as="sourcePoint" />
            <mxPoint x="730" y="910" as="targetPoint" />
          </mxGeometry>
        </mxCell>
        <mxCell id="m-cgeizB23GsR8p7LIg1-21" value="" style="endArrow=classic;html=1;rounded=0;entryX=0;entryY=0.5;entryDx=0;entryDy=0;" edge="1" parent="1">
          <mxGeometry width="50" height="50" relative="1" as="geometry">
            <mxPoint x="522.5" y="874.72" as="sourcePoint" />
            <mxPoint x="547.5" y="874.72" as="targetPoint" />
          </mxGeometry>
        </mxCell>
        <mxCell id="m-cgeizB23GsR8p7LIg1-22" value="" style="endArrow=classic;html=1;rounded=0;entryX=0;entryY=0.5;entryDx=0;entryDy=0;" edge="1" parent="1">
          <mxGeometry width="50" height="50" relative="1" as="geometry">
            <mxPoint x="522.5" y="954.72" as="sourcePoint" />
            <mxPoint x="547.5" y="954.72" as="targetPoint" />
          </mxGeometry>
        </mxCell>
        <mxCell id="m-cgeizB23GsR8p7LIg1-23" value="" style="endArrow=classic;html=1;rounded=0;entryX=0;entryY=0.5;entryDx=0;entryDy=0;" edge="1" parent="1">
          <mxGeometry width="50" height="50" relative="1" as="geometry">
            <mxPoint x="522.5" y="1020" as="sourcePoint" />
            <mxPoint x="547.5" y="1020" as="targetPoint" />
          </mxGeometry>
        </mxCell>
        <mxCell id="m-cgeizB23GsR8p7LIg1-24" value="" style="endArrow=classic;html=1;rounded=0;entryX=0;entryY=0.5;entryDx=0;entryDy=0;" edge="1" parent="1">
          <mxGeometry width="50" height="50" relative="1" as="geometry">
            <mxPoint x="525" y="1090" as="sourcePoint" />
            <mxPoint x="550" y="1090" as="targetPoint" />
          </mxGeometry>
        </mxCell>
        <mxCell id="m-cgeizB23GsR8p7LIg1-30" value="" style="rhombus;" vertex="1" parent="1">
          <mxGeometry x="670" y="935" width="30" height="30" as="geometry" />
        </mxCell>
        <mxCell id="m-cgeizB23GsR8p7LIg1-38" value="" style="html=1;points=[];perimeter=orthogonalPerimeter;fillColor=strokeColor;direction=south;" vertex="1" parent="1">
          <mxGeometry x="938.75" y="895" width="151.25" height="5" as="geometry" />
        </mxCell>
        <mxCell id="m-cgeizB23GsR8p7LIg1-39" value="Not Spam" style="rounded=1;whiteSpace=wrap;html=1;strokeWidth=2;" vertex="1" parent="1">
          <mxGeometry x="945.75" y="930" width="95" height="40" as="geometry" />
        </mxCell>
        <mxCell id="m-cgeizB23GsR8p7LIg1-41" value="" style="endArrow=classic;html=1;rounded=0;entryX=0;entryY=0.5;entryDx=0;entryDy=0;exitX=1.459;exitY=0.142;exitDx=0;exitDy=0;exitPerimeter=0;" edge="1" parent="1" source="m-cgeizB23GsR8p7LIg1-38" target="4jXQ8h8RhREtusohWk7J-89">
          <mxGeometry width="50" height="50" relative="1" as="geometry">
            <mxPoint x="980" y="970" as="sourcePoint" />
            <mxPoint x="1030" y="920" as="targetPoint" />
            <Array as="points">
              <mxPoint x="1070" y="975" />
            </Array>
          </mxGeometry>
        </mxCell>
        <mxCell id="m-cgeizB23GsR8p7LIg1-43" value="" style="endArrow=classic;html=1;rounded=0;exitX=0.5;exitY=1;exitDx=0;exitDy=0;entryX=-0.233;entryY=0.518;entryDx=0;entryDy=0;entryPerimeter=0;" edge="1" parent="1" source="4jXQ8h8RhREtusohWk7J-67" target="m-cgeizB23GsR8p7LIg1-38">
          <mxGeometry width="50" height="50" relative="1" as="geometry">
            <mxPoint x="1000" y="940" as="sourcePoint" />
            <mxPoint x="1050" y="890" as="targetPoint" />
          </mxGeometry>
        </mxCell>
        <mxCell id="m-cgeizB23GsR8p7LIg1-45" value="" style="endArrow=classic;html=1;rounded=0;entryX=0.5;entryY=0;entryDx=0;entryDy=0;exitX=1.012;exitY=0.62;exitDx=0;exitDy=0;exitPerimeter=0;" edge="1" parent="1" source="m-cgeizB23GsR8p7LIg1-14" target="m-cgeizB23GsR8p7LIg1-30">
          <mxGeometry width="50" height="50" relative="1" as="geometry">
            <mxPoint x="740" y="950" as="sourcePoint" />
            <mxPoint x="790" y="900" as="targetPoint" />
            <Array as="points">
              <mxPoint x="685" y="815" />
            </Array>
          </mxGeometry>
        </mxCell>
        <mxCell id="m-cgeizB23GsR8p7LIg1-46" value="" style="endArrow=classic;html=1;rounded=0;entryX=0;entryY=0.5;entryDx=0;entryDy=0;exitX=1;exitY=0.5;exitDx=0;exitDy=0;" edge="1" parent="1" source="m-cgeizB23GsR8p7LIg1-17" target="m-cgeizB23GsR8p7LIg1-30">
          <mxGeometry width="50" height="50" relative="1" as="geometry">
            <mxPoint x="740" y="980" as="sourcePoint" />
            <mxPoint x="790" y="930" as="targetPoint" />
          </mxGeometry>
        </mxCell>
        <mxCell id="m-cgeizB23GsR8p7LIg1-47" value="" style="endArrow=classic;html=1;rounded=0;exitX=1;exitY=0.5;exitDx=0;exitDy=0;entryX=0;entryY=0;entryDx=0;entryDy=0;" edge="1" parent="1" source="m-cgeizB23GsR8p7LIg1-16" target="m-cgeizB23GsR8p7LIg1-30">
          <mxGeometry width="50" height="50" relative="1" as="geometry">
            <mxPoint x="740" y="980" as="sourcePoint" />
            <mxPoint x="790" y="930" as="targetPoint" />
          </mxGeometry>
        </mxCell>
        <mxCell id="m-cgeizB23GsR8p7LIg1-48" value="" style="endArrow=classic;html=1;rounded=0;exitX=1;exitY=0.5;exitDx=0;exitDy=0;entryX=0;entryY=1;entryDx=0;entryDy=0;" edge="1" parent="1" source="m-cgeizB23GsR8p7LIg1-18" target="m-cgeizB23GsR8p7LIg1-30">
          <mxGeometry width="50" height="50" relative="1" as="geometry">
            <mxPoint x="730" y="1030" as="sourcePoint" />
            <mxPoint x="780" y="980" as="targetPoint" />
          </mxGeometry>
        </mxCell>
        <mxCell id="m-cgeizB23GsR8p7LIg1-49" value="" style="endArrow=classic;html=1;rounded=0;entryX=0.5;entryY=1;entryDx=0;entryDy=0;exitX=1;exitY=0.5;exitDx=0;exitDy=0;" edge="1" parent="1" source="m-cgeizB23GsR8p7LIg1-19" target="m-cgeizB23GsR8p7LIg1-30">
          <mxGeometry width="50" height="50" relative="1" as="geometry">
            <mxPoint x="730" y="1030" as="sourcePoint" />
            <mxPoint x="780" y="980" as="targetPoint" />
            <Array as="points">
              <mxPoint x="685" y="1090" />
            </Array>
          </mxGeometry>
        </mxCell>
        <mxCell id="m-cgeizB23GsR8p7LIg1-50" value="" style="endArrow=classic;html=1;rounded=0;entryX=0;entryY=1;entryDx=0;entryDy=0;" edge="1" parent="1" target="4jXQ8h8RhREtusohWk7J-97">
          <mxGeometry width="50" height="50" relative="1" as="geometry">
            <mxPoint x="710" y="950" as="sourcePoint" />
            <mxPoint x="1010" y="1030" as="targetPoint" />
            <Array as="points">
              <mxPoint x="710" y="1173" />
            </Array>
          </mxGeometry>
        </mxCell>
        <mxCell id="m-cgeizB23GsR8p7LIg1-51" value="" style="endArrow=none;html=1;rounded=0;exitX=1;exitY=0.5;exitDx=0;exitDy=0;" edge="1" parent="1" source="m-cgeizB23GsR8p7LIg1-30">
          <mxGeometry width="50" height="50" relative="1" as="geometry">
            <mxPoint x="810" y="1000" as="sourcePoint" />
            <mxPoint x="710" y="950" as="targetPoint" />
          </mxGeometry>
        </mxCell>
        <mxCell id="m-cgeizB23GsR8p7LIg1-52" value="" style="rhombus;" vertex="1" parent="1">
          <mxGeometry x="996.25" y="1050" width="30" height="30" as="geometry" />
        </mxCell>
        <mxCell id="m-cgeizB23GsR8p7LIg1-53" value="" style="endArrow=classic;html=1;rounded=0;entryX=0.5;entryY=0;entryDx=0;entryDy=0;" edge="1" parent="1" target="m-cgeizB23GsR8p7LIg1-52">
          <mxGeometry width="50" height="50" relative="1" as="geometry">
            <mxPoint x="1010" y="970" as="sourcePoint" />
            <mxPoint x="990" y="990" as="targetPoint" />
          </mxGeometry>
        </mxCell>
        <mxCell id="m-cgeizB23GsR8p7LIg1-54" value="" style="endArrow=classic;html=1;rounded=0;entryX=0.5;entryY=1;entryDx=0;entryDy=0;exitX=1;exitY=0.5;exitDx=0;exitDy=0;" edge="1" parent="1" source="4jXQ8h8RhREtusohWk7J-77" target="m-cgeizB23GsR8p7LIg1-52">
          <mxGeometry width="50" height="50" relative="1" as="geometry">
            <mxPoint x="940" y="1100" as="sourcePoint" />
            <mxPoint x="990" y="1050" as="targetPoint" />
            <Array as="points">
              <mxPoint x="1011" y="1130" />
            </Array>
          </mxGeometry>
        </mxCell>
        <mxCell id="m-cgeizB23GsR8p7LIg1-57" value="" style="endArrow=classic;html=1;rounded=0;entryX=0.5;entryY=0;entryDx=0;entryDy=0;" edge="1" parent="1" source="4jXQ8h8RhREtusohWk7J-68" target="4jXQ8h8RhREtusohWk7J-89">
          <mxGeometry width="50" height="50" relative="1" as="geometry">
            <mxPoint x="1040" y="1070" as="sourcePoint" />
            <mxPoint x="1090" y="1020" as="targetPoint" />
          </mxGeometry>
        </mxCell>
        <mxCell id="m-cgeizB23GsR8p7LIg1-58" value="" style="endArrow=classic;html=1;rounded=0;exitX=0.642;exitY=0.328;exitDx=0;exitDy=0;exitPerimeter=0;entryX=0.5;entryY=0;entryDx=0;entryDy=0;" edge="1" parent="1">
          <mxGeometry width="50" height="50" relative="1" as="geometry">
            <mxPoint x="1335" y="898" as="sourcePoint" />
            <mxPoint x="1336" y="930" as="targetPoint" />
          </mxGeometry>
        </mxCell>
        <mxCell id="m-cgeizB23GsR8p7LIg1-59" value="" style="endArrow=classic;html=1;rounded=0;entryX=0.526;entryY=0;entryDx=0;entryDy=0;entryPerimeter=0;exitX=0.033;exitY=0.628;exitDx=0;exitDy=0;exitPerimeter=0;" edge="1" parent="1">
          <mxGeometry width="50" height="50" relative="1" as="geometry">
            <mxPoint x="980" y="895" as="sourcePoint" />
            <mxPoint x="981" y="930" as="targetPoint" />
          </mxGeometry>
        </mxCell>
      </root>
    </mxGraphModel>
  </diagram>
  <diagram id="SwtLuNYsp7rG4koavWcA" name="Page-2">
    <mxGraphModel dx="1036" dy="606" grid="1" gridSize="10" guides="1" tooltips="1" connect="1" arrows="1" fold="1" page="1" pageScale="1" pageWidth="15000" pageHeight="15000" math="0" shadow="0">
      <root>
        <mxCell id="0" />
        <mxCell id="1" parent="0" />
      </root>
    </mxGraphModel>
  </diagram>
</mxfile>
